<?xml version="1.0" encoding="utf-8"?><svg width="55" height="55" fill="none" xmlns="http://www.w3.org/2000/svg" viewBox="0 0 55 55"><mask id="ga" maskUnits="userSpaceOnUse" x="0" y="0" width="55" height="55" fill="#000"><path fill="#fff" d="M0 0h55v55H0z"/><path d="M53.223 26.724h-12.5v-1.767h3.373a.776.776 0 100-1.553h-3.373v-1.766h2.341c.873 0 1.693-.34 2.31-.956l5.106-5.106c.332.165.701.253 1.084.253a2.42 2.42 0 001.722-.713A2.42 2.42 0 0054 13.394a2.42 2.42 0 00-.714-1.723 2.42 2.42 0 00-1.722-.713 2.42 2.42 0 00-1.723.713 2.42 2.42 0 00-.713 1.723c0 .382.088.75.254 1.084l-5.106 5.106a1.702 1.702 0 01-1.212.501h-2.341v-1.713a4.1 4.1 0 00-4.096-4.095h-1.713V7.404a2.44 2.44 0 001.66-2.308 2.439 2.439 0 00-2.436-2.436 2.439 2.439 0 00-2.436 2.436 2.44 2.44 0 001.66 2.308v6.873h-1.767v-3.373a.776.776 0 00-1.552 0v3.373h-1.767v-12.5a.776.776 0 00-1.553 0v12.5h-1.766v-3.373a.776.776 0 00-1.553 0v3.373h-1.766v-2.342c0-.872-.34-1.692-.957-2.309l-5.108-5.108c.452-.91.3-2.047-.457-2.804a2.439 2.439 0 00-3.445 0c-.95.95-.95 2.495 0 3.445a2.429 2.429 0 002.805.457l5.107 5.108c.324.324.502.754.502 1.211v2.342h-1.713c-.346 0-.69.043-1.023.129a.776.776 0 00.386 1.504c.207-.053.421-.08.637-.08h18.255a2.546 2.546 0 012.543 2.542v18.256c0 .215-.027.43-.08.636a.776.776 0 001.504.386c.085-.332.129-.676.129-1.022v-1.713h6.873a2.44 2.44 0 002.308 1.66 2.439 2.439 0 002.436-2.437 2.439 2.439 0 00-2.436-2.436 2.44 2.44 0 00-2.308 1.66h-6.873v-1.767h3.372a.776.776 0 000-1.552h-3.372v-1.767h12.5a.776.776 0 000-1.552zM50.94 12.769a.877.877 0 01.625-.259c.236 0 .457.092.624.26a.877.877 0 01.259.624.877.877 0 01-.259.624.877.877 0 01-.624.259.877.877 0 01-.625-.259.877.877 0 01-.259-.624c0-.236.092-.458.26-.625zM14.018 4.061a.884.884 0 01-1.25-1.25.88.88 0 011.25 0 .884.884 0 010 1.25zm20.12 1.918a.884.884 0 010-1.767.884.884 0 010 1.767zm15.766 27.276a.884.884 0 010 1.767.884.884 0 010-1.767zM43.329 49.842a2.438 2.438 0 00-2.805-.458l-5.108-5.108a1.701 1.701 0 01-.501-1.211v-2.342h1.713c.346 0 .69-.043 1.023-.129a.776.776 0 00-.387-1.504c-.207.053-.42.08-.636.08H18.372a2.546 2.546 0 01-2.543-2.542V18.372c0-.215.027-.43.08-.636a.776.776 0 00-1.503-.387 4.105 4.105 0 00-.13 1.023v1.713H7.405a2.44 2.44 0 00-2.309-1.66 2.439 2.439 0 00-2.435 2.437 2.439 2.439 0 002.435 2.436 2.44 2.44 0 002.309-1.66h6.873v1.766h-3.373a.776.776 0 000 1.553h3.373v1.767h-12.5a.776.776 0 000 1.552h12.5v1.767h-3.373a.776.776 0 000 1.553h3.373v1.766h-2.342c-.872 0-1.692.34-2.31.956L4.52 39.424a2.425 2.425 0 00-1.084-.254 2.42 2.42 0 00-1.723.714A2.421 2.421 0 001 41.606c0 .651.253 1.263.714 1.723a2.42 2.42 0 001.722.713 2.42 2.42 0 001.723-.713 2.42 2.42 0 00.713-1.723c0-.382-.088-.751-.254-1.084l5.106-5.106a1.702 1.702 0 011.211-.501h2.342v1.713a4.1 4.1 0 004.095 4.095h1.713v6.873a2.44 2.44 0 00-1.66 2.308 2.439 2.439 0 002.437 2.436 2.439 2.439 0 002.436-2.436 2.44 2.44 0 00-1.66-2.308v-6.873h1.766v3.373a.776.776 0 001.553 0v-3.373h1.767v12.5a.776.776 0 101.552 0v-12.5h1.767v3.373a.776.776 0 001.552 0v-3.373h1.767v2.342c0 .872.34 1.692.956 2.309l5.108 5.108c-.451.91-.3 2.047.458 2.804a2.428 2.428 0 001.722.713c.624 0 1.248-.238 1.723-.713.95-.95.95-2.495 0-3.444zM5.095 21.745a.884.884 0 010-1.767.884.884 0 010 1.767zM4.06 42.23a.877.877 0 01-.624.259.877.877 0 01-.625-.26.877.877 0 01-.258-.624c0-.236.092-.457.258-.624a.878.878 0 01.625-.259c.236 0 .458.092.624.259a.877.877 0 01.26.624.877.877 0 01-.26.625zm17.685 7.673a.884.884 0 01-1.767 0 .884.884 0 011.767 0zm20.486 2.284a.884.884 0 01-1.25-1.248.88.88 0 011.25 0 .884.884 0 010 1.248z"/><path d="M24.302 32v-9.884h5.754v1.204h-4.368v3.094h3.542v1.204h-3.542v3.178h4.606V32h-5.992z"/></mask><path d="M53.223 26.724h-12.5v-1.767h3.373a.776.776 0 100-1.553h-3.373v-1.766h2.341c.873 0 1.693-.34 2.31-.956l5.106-5.106c.332.165.701.253 1.084.253a2.42 2.42 0 001.722-.713A2.42 2.42 0 0054 13.394a2.42 2.42 0 00-.714-1.723 2.42 2.42 0 00-1.722-.713 2.42 2.42 0 00-1.723.713 2.42 2.42 0 00-.713 1.723c0 .382.088.75.254 1.084l-5.106 5.106a1.702 1.702 0 01-1.212.501h-2.341v-1.713a4.1 4.1 0 00-4.096-4.095h-1.713V7.404a2.44 2.44 0 001.66-2.308 2.439 2.439 0 00-2.436-2.436 2.439 2.439 0 00-2.436 2.436 2.44 2.44 0 001.66 2.308v6.873h-1.767v-3.373a.776.776 0 00-1.552 0v3.373h-1.767v-12.5a.776.776 0 00-1.553 0v12.5h-1.766v-3.373a.776.776 0 00-1.553 0v3.373h-1.766v-2.342c0-.872-.34-1.692-.957-2.309l-5.108-5.108c.452-.91.3-2.047-.457-2.804a2.439 2.439 0 00-3.445 0c-.95.95-.95 2.495 0 3.445a2.429 2.429 0 002.805.457l5.107 5.108c.324.324.502.754.502 1.211v2.342h-1.713c-.346 0-.69.043-1.023.129a.776.776 0 00.386 1.504c.207-.053.421-.08.637-.08h18.255a2.546 2.546 0 012.543 2.542v18.256c0 .215-.027.43-.08.636a.776.776 0 001.504.386c.085-.332.129-.676.129-1.022v-1.713h6.873a2.44 2.44 0 002.308 1.66 2.439 2.439 0 002.436-2.437 2.439 2.439 0 00-2.436-2.436 2.44 2.44 0 00-2.308 1.66h-6.873v-1.767h3.372a.776.776 0 000-1.552h-3.372v-1.767h12.5a.776.776 0 000-1.552zM50.94 12.769a.877.877 0 01.625-.259c.236 0 .457.092.624.26a.877.877 0 01.259.624.877.877 0 01-.259.624.877.877 0 01-.624.259.877.877 0 01-.625-.259.877.877 0 01-.259-.624c0-.236.092-.458.26-.625zM14.018 4.061a.884.884 0 01-1.25-1.25.88.88 0 011.25 0 .884.884 0 010 1.25zm20.12 1.918a.884.884 0 010-1.767.884.884 0 010 1.767zm15.766 27.276a.884.884 0 010 1.767.884.884 0 010-1.767zM43.329 49.842a2.438 2.438 0 00-2.805-.458l-5.108-5.108a1.701 1.701 0 01-.501-1.211v-2.342h1.713c.346 0 .69-.043 1.023-.129a.776.776 0 00-.387-1.504c-.207.053-.42.08-.636.08H18.372a2.546 2.546 0 01-2.543-2.542V18.372c0-.215.027-.43.08-.636a.776.776 0 00-1.503-.387 4.105 4.105 0 00-.13 1.023v1.713H7.405a2.44 2.44 0 00-2.309-1.66 2.439 2.439 0 00-2.435 2.437 2.439 2.439 0 002.435 2.436 2.44 2.44 0 002.309-1.66h6.873v1.766h-3.373a.776.776 0 000 1.553h3.373v1.767h-12.5a.776.776 0 000 1.552h12.5v1.767h-3.373a.776.776 0 000 1.553h3.373v1.766h-2.342c-.872 0-1.692.34-2.31.956L4.52 39.424a2.425 2.425 0 00-1.084-.254 2.42 2.42 0 00-1.723.714A2.421 2.421 0 001 41.606c0 .651.253 1.263.714 1.723a2.42 2.42 0 001.722.713 2.42 2.42 0 001.723-.713 2.42 2.42 0 00.713-1.723c0-.382-.088-.751-.254-1.084l5.106-5.106a1.702 1.702 0 011.211-.501h2.342v1.713a4.1 4.1 0 004.095 4.095h1.713v6.873a2.44 2.44 0 00-1.66 2.308 2.439 2.439 0 002.437 2.436 2.439 2.439 0 002.436-2.436 2.44 2.44 0 00-1.66-2.308v-6.873h1.766v3.373a.776.776 0 001.553 0v-3.373h1.767v12.5a.776.776 0 101.552 0v-12.5h1.767v3.373a.776.776 0 001.552 0v-3.373h1.767v2.342c0 .872.34 1.692.956 2.309l5.108 5.108c-.451.91-.3 2.047.458 2.804a2.428 2.428 0 001.722.713c.624 0 1.248-.238 1.723-.713.95-.95.95-2.495 0-3.444zM5.095 21.745a.884.884 0 010-1.767.884.884 0 010 1.767zM4.06 42.23a.877.877 0 01-.624.259.877.877 0 01-.625-.26.877.877 0 01-.258-.624c0-.236.092-.457.258-.624a.878.878 0 01.625-.259c.236 0 .458.092.624.259a.877.877 0 01.26.624.877.877 0 01-.26.625zm17.685 7.673a.884.884 0 01-1.767 0 .884.884 0 011.767 0zm20.486 2.284a.884.884 0 01-1.25-1.248.88.88 0 011.25 0 .884.884 0 010 1.248z" fill="#C91226"/><path d="M24.302 32v-9.884h5.754v1.204h-4.368v3.094h3.542v1.204h-3.542v3.178h4.606V32h-5.992z" fill="#C91226"/><path d="M53.223 26.724h-12.5v-1.767h3.373a.776.776 0 100-1.553h-3.373v-1.766h2.341c.873 0 1.693-.34 2.31-.956l5.106-5.106c.332.165.701.253 1.084.253a2.42 2.42 0 001.722-.713A2.42 2.42 0 0054 13.394a2.42 2.42 0 00-.714-1.723 2.42 2.42 0 00-1.722-.713 2.42 2.42 0 00-1.723.713 2.42 2.42 0 00-.713 1.723c0 .382.088.75.254 1.084l-5.106 5.106a1.702 1.702 0 01-1.212.501h-2.341v-1.713a4.1 4.1 0 00-4.096-4.095h-1.713V7.404a2.44 2.44 0 001.66-2.308 2.439 2.439 0 00-2.436-2.436 2.439 2.439 0 00-2.436 2.436 2.44 2.44 0 001.66 2.308v6.873h-1.767v-3.373a.776.776 0 00-1.552 0v3.373h-1.767v-12.5a.776.776 0 00-1.553 0v12.5h-1.766v-3.373a.776.776 0 00-1.553 0v3.373h-1.766v-2.342c0-.872-.34-1.692-.957-2.309l-5.108-5.108c.452-.91.3-2.047-.457-2.804a2.439 2.439 0 00-3.445 0c-.95.95-.95 2.495 0 3.445a2.429 2.429 0 002.805.457l5.107 5.108c.324.324.502.754.502 1.211v2.342h-1.713c-.346 0-.69.043-1.023.129a.776.776 0 00.386 1.504c.207-.053.421-.08.637-.08h18.255a2.546 2.546 0 012.543 2.542v18.256c0 .215-.027.43-.08.636a.776.776 0 001.504.386c.085-.332.129-.676.129-1.022v-1.713h6.873a2.44 2.44 0 002.308 1.66 2.439 2.439 0 002.436-2.437 2.439 2.439 0 00-2.436-2.436 2.44 2.44 0 00-2.308 1.66h-6.873v-1.767h3.372a.776.776 0 000-1.552h-3.372v-1.767h12.5a.776.776 0 000-1.552zM50.94 12.769a.877.877 0 01.625-.259c.236 0 .457.092.624.26a.877.877 0 01.259.624.877.877 0 01-.259.624.877.877 0 01-.624.259.877.877 0 01-.625-.259.877.877 0 01-.259-.624c0-.236.092-.458.26-.625zM14.018 4.061a.884.884 0 01-1.25-1.25.88.88 0 011.25 0 .884.884 0 010 1.25zm20.12 1.918a.884.884 0 010-1.767.884.884 0 010 1.767zm15.766 27.276a.884.884 0 010 1.767.884.884 0 010-1.767zM43.329 49.842a2.438 2.438 0 00-2.805-.458l-5.108-5.108a1.701 1.701 0 01-.501-1.211v-2.342h1.713c.346 0 .69-.043 1.023-.129a.776.776 0 00-.387-1.504c-.207.053-.42.08-.636.08H18.372a2.546 2.546 0 01-2.543-2.542V18.372c0-.215.027-.43.08-.636a.776.776 0 00-1.503-.387 4.105 4.105 0 00-.13 1.023v1.713H7.405a2.44 2.44 0 00-2.309-1.66 2.439 2.439 0 00-2.435 2.437 2.439 2.439 0 002.435 2.436 2.44 2.44 0 002.309-1.66h6.873v1.766h-3.373a.776.776 0 000 1.553h3.373v1.767h-12.5a.776.776 0 000 1.552h12.5v1.767h-3.373a.776.776 0 000 1.553h3.373v1.766h-2.342c-.872 0-1.692.34-2.31.956L4.52 39.424a2.425 2.425 0 00-1.084-.254 2.42 2.42 0 00-1.723.714A2.421 2.421 0 001 41.606c0 .651.253 1.263.714 1.723a2.42 2.42 0 001.722.713 2.42 2.42 0 001.723-.713 2.42 2.42 0 00.713-1.723c0-.382-.088-.751-.254-1.084l5.106-5.106a1.702 1.702 0 011.211-.501h2.342v1.713a4.1 4.1 0 004.095 4.095h1.713v6.873a2.44 2.44 0 00-1.66 2.308 2.439 2.439 0 002.437 2.436 2.439 2.439 0 002.436-2.436 2.44 2.44 0 00-1.66-2.308v-6.873h1.766v3.373a.776.776 0 001.553 0v-3.373h1.767v12.5a.776.776 0 101.552 0v-12.5h1.767v3.373a.776.776 0 001.552 0v-3.373h1.767v2.342c0 .872.34 1.692.956 2.309l5.108 5.108c-.451.91-.3 2.047.458 2.804a2.428 2.428 0 001.722.713c.624 0 1.248-.238 1.723-.713.95-.95.95-2.495 0-3.444zM5.095 21.745a.884.884 0 010-1.767.884.884 0 010 1.767zM4.06 42.23a.877.877 0 01-.624.259.877.877 0 01-.625-.26.877.877 0 01-.258-.624c0-.236.092-.457.258-.624a.878.878 0 01.625-.259c.236 0 .458.092.624.259a.877.877 0 01.26.624.877.877 0 01-.26.625zm17.685 7.673a.884.884 0 01-1.767 0 .884.884 0 011.767 0zm20.486 2.284a.884.884 0 01-1.25-1.248.88.88 0 011.25 0 .884.884 0 010 1.248z" stroke="#C91226" stroke-width=".4" mask="url(#ga)"/><path d="M24.302 32v-9.884h5.754v1.204h-4.368v3.094h3.542v1.204h-3.542v3.178h4.606V32h-5.992z" stroke="#C91226" stroke-width=".4" mask="url(#ga)"/></svg>