<?xml version="1.0" encoding="utf-8"?><svg width="30" height="40" fill="none" xmlns="http://www.w3.org/2000/svg" viewBox="0 0 30 40"><path d="M28.468 8.565l.484.515c.315.336.372.75.372 1.266v28.099c0 .311-.146.61-.369.851-.222.242-.526.431-.857.522m.37-31.253l-.397 31.157m.397-31.157l-6.331-6.75-.484-.516A1.25 1.25 0 0020.748.9H2.544c-.4 0-.813.165-1.125.507-.313.343-.52.857-.52 1.55v35.488c0 .311.146.61.369.851.222.242.527.431.857.522M28.468 8.565L2.153 39.722m25.945.096l-.027-.096m.027.096s0 0 0 0l-.027-.096m.027.096l-.042.014a1.538 1.538 0 01-.377.05H2.545a1.54 1.54 0 01-.319-.034m25.845-.126l-.036.011a.48.48 0 01-.058.017c-.098.02-.197.032-.298.032H2.545c-.1 0-.2-.011-.298-.032m-.02.098s0 0 0 0l.02-.098m-.02.098l.02-.098m-.02.098a.534.534 0 01-.059-.017l-.012-.003-.03-.01m.12-.068a.48.48 0 01-.057-.017l-.036-.011m0 0l-.027.096m.027-.096l-.027.096s0 0 0 0m25.598-29.357c.05 0 .1-.005.146-.013v16.53H2.354V2.956c0-.07.006-.213.04-.336a.382.382 0 01.068-.141.103.103 0 01.083-.042h17.812a1.008 1.008 0 00-.014.162V10.46H27.724zm-5.926-6.824l4.96 5.287h-4.96V3.637zM2.545 38.345a.24.24 0 01-.083-.024.208.208 0 01-.108-.186v-9.62H27.87v9.62a.209.209 0 01-.108.186.24.24 0 01-.083.024H2.545z" fill="#fff" stroke="#fff" stroke-width=".2"/><path d="M9.86 31.334l-.048.088a.96.96 0 01.5.672 2.084 2.084 0 01-.048 1.018c-.06.176-.136.306-.225.396a.833.833 0 01-.303.2.972.972 0 01-.338.063h-.844V31.3h.672c.253 0 .446.043.586.12l.049-.087zm0 0c-.16-.088-.371-.132-.634-.132h-.672l1.855.872a1.058 1.058 0 00-.549-.74zm.954-.49v-.001a2.22 2.22 0 00-.74-.43 2.506 2.506 0 00-.83-.143H7.325V37.207h1.229v-2.432h.663c.342 0 .658-.053.944-.161.286-.108.533-.262.738-.46.206-.2.364-.446.478-.735h0c.114-.291.17-.612.17-.965 0-.337-.067-.643-.204-.918a2.226 2.226 0 00-.53-.693zM17.04 31.29h0a3.002 3.002 0 00-1.038-.742c-.418-.186-.9-.278-1.442-.278h-2.004V37.207h2.492c.086 0 .215-.011.382-.033h0c.175-.022.366-.073.571-.152.21-.08.424-.199.644-.355.227-.161.428-.38.605-.654.179-.276.323-.614.437-1.014.115-.405.171-.889.171-1.449 0-.414-.067-.816-.202-1.207h0a3.103 3.103 0 00-.616-1.053zm-.91 4.245h0c-.285.44-.752.667-1.424.667h-.92v-4.9h.5c.483 0 .868.067 1.16.196.296.132.527.303.695.512.17.21.285.445.345.704.061.267.092.537.092.81 0 .892-.154 1.56-.447 2.01zM19.15 37.107v.1h1.247v-3.035h2.64v-.95h-2.64v-1.92h2.906V30.27H19.15v6.837zM15.962 6.988l.004.005c.187.254.594.807-.238 4.543.845 1.862 2.043 3.758 3.191 5.056.822-.159 1.53-.24 2.106-.24.983 0 1.578.246 1.82.747M15.961 6.988l-1.349 4.668c-.535 2.268-1.432 4.984-2.375 7.188-2.378 1.16-3.64 2.3-3.754 3.388-.042.396.046.977.7 1.5a.967.967 0 00.606.218c.548 0 1.103-.448 1.745-1.41m4.427-15.552l-.062-.085c-.191-.265-.445-.617-.729-.617a2.92 2.92 0 00-.637.115l1.428.587zm6.882 10.11c.201.417.119.902-.244 1.445m.244-1.444l.09-.044s0 0 0 0m-.09.044l.09-.044m-.334 1.488c-.35.52-.83.796-1.393.796-.762 0-1.65-.513-2.641-1.528m4.034.732l.083.055m-.083-.055l.083.055s0 0 0 0m-4.117-.787a28.732 28.732 0 00-5.537 1.887m5.537-1.887l-.072.07.04.04m.032-.11l.022.098-.054.012m-5.505 1.777c-.524 1.186-1.027 2.142-1.495 2.843m1.495-2.843l.042.09c.012-.004.023-.01.034-.015m-.076-.075l.091.04c-.004.012-.01.024-.015.035m-1.57 2.768l.083.055c-.324.485-.63.846-.928 1.087-.3.242-.597.366-.9.366-.243 0-.474-.084-.67-.24h0c-.683-.546-.78-1.163-.736-1.587h0c.061-.579.425-1.157 1.061-1.73.63-.57 1.539-1.145 2.715-1.722.931-2.182 1.817-4.86 2.348-7.105M11.535 22.54l.083.055c.467-.7.967-1.65 1.487-2.823m1.403-8.108l4.448 4.818c.803-.152 1.498-.23 2.07-.23.99 0 1.64.246 1.908.802m-8.426-5.39c-.31-.722-.614-1.55-.789-2.339-.176-.795-.223-1.568.01-2.15h0c.16-.395.369-.726.771-.869h0c.08-.028.213-.058.339-.08.125-.023.256-.04.332-.04.203 0 .377.136.513.281.112.119.214.26.3.379l.058.081h0l.005.006c.047.064.113.154.168.307.057.157.102.375.114.7.023.644-.082 1.72-.496 3.584l-1.325.14zm-1.403 8.108a28.698 28.698 0 015.429-1.852m0 0c.98.993 1.879 1.518 2.673 1.518.6 0 1.11-.296 1.476-.84m0 0c.373-.559.474-1.083.251-1.544M10.08 21.673c.252-.255.62-.55 1.123-.873-.424.797-.755 1.268-.993 1.545-.194.226-.324.32-.39.358a.623.623 0 01-.17-.218.216.216 0 01-.017-.116h0s0 0 0 0c.016-.151.142-.388.447-.696zm4.813-13.924c.02-.038.04-.07.057-.097l.016.026c.048.082.107.21.148.38.074.315.09.781-.137 1.393a1.447 1.447 0 01-.26-1.218c.042-.196.113-.364.177-.484zm-1.064 10.28a50.16 50.16 0 001.529-4.607 23.132 23.132 0 002.192 3.378 30.029 30.029 0 00-3.721 1.229zm7.83-.195a.558.558 0 01-.338.214 1.365 1.365 0 01-.337.036c-.139 0-.233-.04-.358-.137-.065-.05-.135-.112-.224-.191l-.002-.002a16.55 16.55 0 00-.146-.129c.33-.034.64-.044.895-.044.275 0 .43.022.524.046.038.01.066.02.088.03-.02.044-.051.102-.102.177z" fill="#fff" stroke="#fff" stroke-width=".2"/></svg>