<?xml version="1.0" encoding="utf-8"?><svg width="60" height="56" fill="none" xmlns="http://www.w3.org/2000/svg" viewBox="0 0 60 56"><path d="M29.429 35.273c2.644 0 8.015-1.67 8.349-8.349M29.22 40.073c4.23 0 12.824-2.671 13.358-13.357M29.678 19.66c-2.644 0-8.015 1.67-8.35 8.348M29.886 14.859c-4.23 0-12.823 2.671-13.357 13.358" stroke="#C91226" stroke-width="2.1" stroke-linecap="round"/><circle cx="29.638" cy="27.968" r="2.707" stroke="#C91226" stroke-width="2.1"/><path d="M43.83 8.766l7.097 12.106" stroke="#C91226" stroke-width="2.1" stroke-linecap="round"/><circle cx="42.161" cy="6.261" r="2.707" stroke="#C91226" stroke-width="2.1"/><path d="M53.061 30.372L46.126 42.57" stroke="#C91226" stroke-width="2.1" stroke-linecap="round"/><circle cx="54.396" cy="27.673" r="2.707" transform="rotate(60 54.396 27.673)" stroke="#C91226" stroke-width="2.1"/><path d="M39.077 49.466l-14.032.093" stroke="#C91226" stroke-width="2.1" stroke-linecap="round"/><circle cx="42.082" cy="49.272" r="2.707" transform="rotate(120 42.082 49.272)" stroke="#C91226" stroke-width="2.1"/><path d="M15.445 46.335L8.349 34.229" stroke="#C91226" stroke-width="2.1" stroke-linecap="round"/><circle cx="17.115" cy="48.839" r="2.707" transform="rotate(-180 17.115 48.84)" stroke="#C91226" stroke-width="2.1"/><path d="M6.466 24.721l6.936-12.198" stroke="#C91226" stroke-width="2.1" stroke-linecap="round"/><circle cx="5.132" cy="27.42" r="2.707" transform="rotate(-120 5.132 27.42)" stroke="#C91226" stroke-width="2.1"/><path d="M20.659 6.146l14.032-.093" stroke="#C91226" stroke-width="2.1" stroke-linecap="round"/><circle cx="17.655" cy="6.339" r="2.707" transform="rotate(-60 17.655 6.34)" stroke="#C91226" stroke-width="2.1"/></svg>