<?xml version="1.0" encoding="utf-8"?><svg width="48" height="48" fill="none" xmlns="http://www.w3.org/2000/svg" viewBox="0 0 48 48"><mask id="fa" fill="#fff"><path d="M48 24.774V4.645H37.161V0H10.84v4.645H0v20.13h4.645v11.722a3.093 3.093 0 00-2.322 2.987 3.1 3.1 0 003.096 3.097c1.439 0 2.641-.99 2.987-2.323h7.078v1.333l1.901.633-.896 1.792 2.979 2.98 1.791-.897.634 1.901h4.213l.634-1.9 1.791.895 2.98-2.979-.897-1.792 1.902-.633v-1.333h7.078a3.093 3.093 0 002.987 2.323 3.1 3.1 0 003.096-3.097c0-1.44-.99-2.641-2.322-2.987V24.774H48zm-10.839-1.548V18.58h9.29v4.645h-9.29zm-24 0h-.774v-6.194h23.226v6.194H13.16zm24-10.839h9.29v4.645h-9.29v-4.645zm-1.548 3.097H12.387V9.29h23.226v6.194zm-24.774 1.548h-9.29v-4.645h9.29v4.645zM46.452 6.194v4.645h-9.29V6.194h9.29zm-10.84-4.646v6.194H12.388V1.548h23.226zM10.84 6.194v4.645h-9.29V6.194h9.29zM1.549 18.58h9.29v4.645h-9.29V18.58zm3.87 22.451a1.55 1.55 0 01-1.548-1.548 1.55 1.55 0 011.548-1.549 1.55 1.55 0 011.549 1.549 1.55 1.55 0 01-1.549 1.548zm2.987-2.322a3.092 3.092 0 00-2.212-2.213V24.774h17.032v6.194h-1.333l-.634 1.9-1.791-.896-2.98 2.98.897 1.792-1.901.633v1.333H8.406zm22.562 1.764l-1.78.593-.13.345a5.429 5.429 0 01-.118.29l-.15.335.837 1.674-1.4 1.4-1.675-.836-.335.15c-.097.043-.194.08-.293.12l-.342.13-.592 1.777h-1.98l-.593-1.776-.341-.131c-.1-.04-.198-.078-.294-.12l-.335-.15-1.674.837-1.4-1.401.836-1.674-.15-.335a5.429 5.429 0 01-.119-.29l-.13-.345-1.778-.593v-1.98l1.78-.594.13-.345c.037-.098.075-.195.118-.29l.15-.335-.837-1.674 1.4-1.4 1.675.836.335-.15c.097-.043.194-.08.293-.12l.342-.13.592-1.776h1.98l.593 1.776.341.13c.1.04.198.078.294.121l.335.15 1.674-.837 1.4 1.4-.836 1.675.15.335c.043.095.081.192.119.29l.13.345 1.778.593v1.98zm13.161-.99a1.55 1.55 0 01-1.548 1.548 1.55 1.55 0 01-1.549-1.548 1.55 1.55 0 011.549-1.549 1.55 1.55 0 011.548 1.549zm-2.323-2.987a3.092 3.092 0 00-2.212 2.213h-7.078v-1.333l-1.901-.633.896-1.792-2.979-2.98-1.791.896-.634-1.9h-1.333v-6.194h17.032v11.723z"/></mask><path d="M48 24.774V4.645H37.161V0H10.84v4.645H0v20.13h4.645v11.722a3.093 3.093 0 00-2.322 2.987 3.1 3.1 0 003.096 3.097c1.439 0 2.641-.99 2.987-2.323h7.078v1.333l1.901.633-.896 1.792 2.979 2.98 1.791-.897.634 1.901h4.213l.634-1.9 1.791.895 2.98-2.979-.897-1.792 1.902-.633v-1.333h7.078a3.093 3.093 0 002.987 2.323 3.1 3.1 0 003.096-3.097c0-1.44-.99-2.641-2.322-2.987V24.774H48zm-10.839-1.548V18.58h9.29v4.645h-9.29zm-24 0h-.774v-6.194h23.226v6.194H13.16zm24-10.839h9.29v4.645h-9.29v-4.645zm-1.548 3.097H12.387V9.29h23.226v6.194zm-24.774 1.548h-9.29v-4.645h9.29v4.645zM46.452 6.194v4.645h-9.29V6.194h9.29zm-10.84-4.646v6.194H12.388V1.548h23.226zM10.84 6.194v4.645h-9.29V6.194h9.29zM1.549 18.58h9.29v4.645h-9.29V18.58zm3.87 22.451a1.55 1.55 0 01-1.548-1.548 1.55 1.55 0 011.548-1.549 1.55 1.55 0 011.549 1.549 1.55 1.55 0 01-1.549 1.548zm2.987-2.322a3.092 3.092 0 00-2.212-2.213V24.774h17.032v6.194h-1.333l-.634 1.9-1.791-.896-2.98 2.98.897 1.792-1.901.633v1.333H8.406zm22.562 1.764l-1.78.593-.13.345a5.429 5.429 0 01-.118.29l-.15.335.837 1.674-1.4 1.4-1.675-.836-.335.15c-.097.043-.194.08-.293.12l-.342.13-.592 1.777h-1.98l-.593-1.776-.341-.131c-.1-.04-.198-.078-.294-.12l-.335-.15-1.674.837-1.4-1.401.836-1.674-.15-.335a5.429 5.429 0 01-.119-.29l-.13-.345-1.778-.593v-1.98l1.78-.594.13-.345c.037-.098.075-.195.118-.29l.15-.335-.837-1.674 1.4-1.4 1.675.836.335-.15c.097-.043.194-.08.293-.12l.342-.13.592-1.776h1.98l.593 1.776.341.13c.1.04.198.078.294.121l.335.15 1.674-.837 1.4 1.4-.836 1.675.15.335c.043.095.081.192.119.29l.13.345 1.778.593v1.98zm13.161-.99a1.55 1.55 0 01-1.548 1.548 1.55 1.55 0 01-1.549-1.548 1.55 1.55 0 011.549-1.549 1.55 1.55 0 011.548 1.549zm-2.323-2.987a3.092 3.092 0 00-2.212 2.213h-7.078v-1.333l-1.901-.633.896-1.792-2.979-2.98-1.791.896-.634-1.9h-1.333v-6.194h17.032v11.723z" fill="#C91226" stroke="#C91226" stroke-width=".4" mask="url(#fa)"/><path d="M14.035 3.197h1.349v1.348h-1.349V3.197zM17.132 3.197h1.349v1.348h-1.349V3.197zM32.616 3.197h1.349v2.897h-1.349V3.197zM29.52 3.197h1.348v2.897h-1.349V3.197zM26.423 3.197h1.348v2.897h-1.348V3.197zM14.035 10.939h1.349v1.348h-1.349V10.94zM17.132 10.939h1.349v1.348h-1.349V10.94zM32.616 10.939h1.349v2.896h-1.349V10.94zM29.52 10.939h1.348v2.896h-1.349V10.94zM26.423 10.939h1.348v2.896h-1.348V10.94zM14.035 18.68h1.349v1.35h-1.349v-1.35zM17.132 18.68h1.349v1.35h-1.349v-1.35zM32.616 18.68h1.349v2.898h-1.349V18.68zM29.52 18.68h1.348v2.898h-1.349V18.68zM26.423 18.68h1.348v2.898h-1.348V18.68zM43.455 7.842h1.348V9.19h-1.348V7.842zM40.358 7.842h1.349V9.19h-1.349V7.842zM43.455 14.035h1.348v1.349h-1.348v-1.349zM40.358 14.035h1.349v1.349h-1.349v-1.349zM43.455 20.23h1.348v1.348h-1.348v-1.349zM40.358 20.23h1.349v1.348h-1.349v-1.349zM6.294 7.842h1.348V9.19H6.294V7.842zM3.197 7.842h1.348V9.19H3.197V7.842zM6.294 14.035h1.348v1.349H6.294v-1.349zM3.197 14.035h1.348v1.349H3.197v-1.349zM6.294 20.23h1.348v1.348H6.294v-1.349zM3.197 20.23h1.348v1.348H3.197v-1.349zM20.23 39.484A3.776 3.776 0 0124 35.713c2.08 0 3.771 1.692 3.771 3.77 0 2.08-1.692 3.772-3.77 3.772a3.775 3.775 0 01-3.772-3.771zm1.348 0A2.426 2.426 0 0024 41.906a2.426 2.426 0 002.423-2.422A2.426 2.426 0 0024 37.06a2.426 2.426 0 00-2.422 2.423z" fill="#C91226" stroke="#C91226" stroke-width=".2"/></svg>