<?xml version="1.0" encoding="utf-8"?><svg width="112" height="14" fill="none" xmlns="http://www.w3.org/2000/svg" viewBox="0 0 112 14"><g clip-path="url(#hclip0_221_236)"><path fill-rule="evenodd" clip-rule="evenodd" d="M59.047 14.011v-3.2h10.614c.449 0 1.028-.068 1.346-.431.262-.317.395-.723.373-1.136v-.7h-8.408a7.346 7.346 0 01-2.168-.281 3.81 3.81 0 01-1.495-.83 3.186 3.186 0 01-.84-1.329 5.418 5.418 0 01-.255-1.719 4.49 4.49 0 011.121-3.203C60.265.223 61.705 0 62.96 0h8.596a5.4 5.4 0 011.446.163c.375.089.719.28.994.553.248.27.417.604.49.965.087.431.127.87.12 1.31v6.294a6.228 6.228 0 01-.266 1.84 3.844 3.844 0 01-.882 1.516c-.44.447-.974.786-1.562.992a6.3 6.3 0 01-2.205.348l-10.644.03zM21.8 12.96c-.718-.841-.87-2.098-.87-3.166V0h3.247v9.384c0 .973.445 1.424 1.409 1.424h7.355v3.203h-8.151c-1.054 0-2.261-.2-2.99-1.041v-.011zm-8.637-7.502V4.74a1.642 1.642 0 00-.373-1.136c-.314-.379-.897-.432-1.346-.432H.8V0h10.654a6.3 6.3 0 012.209.348c.585.21 1.116.552 1.55 1 .407.429.709.948.883 1.515.18.596.27 1.217.265 1.84v6.305c.008.44-.033.88-.12 1.31a2.013 2.013 0 01-.489.966c-.27.268-.605.458-.972.55-.472.119-.959.174-1.446.162H4.74c-1.267.015-2.702-.223-3.618-1.181A4.49 4.49 0 010 9.61a5.42 5.42 0 01.254-1.72c.167-.507.457-.964.845-1.328.43-.387.94-.67 1.494-.83a7.349 7.349 0 012.164-.28l8.405.004zm37.406 0V4.74a1.646 1.646 0 00-.374-1.136c-.314-.379-.897-.432-1.345-.432H38.205V0H48.86a6.3 6.3 0 012.205.348c.585.21 1.116.552 1.55 1 .407.429.709.948.883 1.515.18.596.27 1.217.265 1.84v6.305c.007.44-.033.88-.12 1.31a2.016 2.016 0 01-.49.966c-.269.268-.604.458-.97.55a5.4 5.4 0 01-1.447.162H42.14c-1.255 0-2.694-.223-3.606-1.181a4.49 4.49 0 01-1.121-3.204 5.416 5.416 0 01.254-1.72c.161-.505.445-.962.826-1.328a3.81 3.81 0 011.495-.83 7.35 7.35 0 012.167-.28l8.413.004zM82.3 8.57v.666c-.022.413.111.82.374 1.136.318.356.904.42 1.345.42h10.805v3.22h-10.79a6.278 6.278 0 01-2.22-.349 4.105 4.105 0 01-1.535-1 3.855 3.855 0 01-.882-1.514 6.199 6.199 0 01-.266-1.856V4.715a6.238 6.238 0 01.266-1.84 3.848 3.848 0 01.881-1.515c.431-.45.956-.796 1.536-1.012A6.277 6.277 0 0184.034 0h6.701c1.256 0 2.695.22 3.618 1.166.852.875 1.121 2.045 1.121 3.242a4.154 4.154 0 01-.245 1.654 4.114 4.114 0 01-.876 1.417c-.927.905-2.437 1.087-3.663 1.087l-8.39.004zM112 0v3.189h-7.359c-.96 0-1.405.454-1.405 1.423v9.4h-3.248V4.206c0-1.071.169-2.336.89-3.166.721-.829 1.936-1.041 2.99-1.041H112zM13.162 8.187h-8.36c-.374 0-.975.046-1.27.333a1.256 1.256 0 00-.337.947 1.353 1.353 0 00.344.97c.348.265.78.39 1.215.352h7.978c.296 0 .43-.076.43-.379V8.187zm37.406 0h-8.36c-.374 0-.976.046-1.27.333a1.254 1.254 0 00-.337.94 1.352 1.352 0 00.343.969c.349.265.781.39 1.215.352h7.979c.295 0 .43-.075.43-.379V8.188zM82.3 5.862h8.334c.4 0 1.006-.045 1.308-.348a1.267 1.267 0 00.348-.95 1.378 1.378 0 00-.374-1.008 1.73 1.73 0 00-1.218-.379h-6.664c-.448 0-1.027.068-1.341.432a1.646 1.646 0 00-.374 1.136v1.136l-.019-.019zm-19.265-.05h8.345V3.599c0-.307-.138-.38-.43-.38h-7.964a1.747 1.747 0 00-1.214.353 1.342 1.342 0 00-.34.97 1.27 1.27 0 00.336.939c.295.291.886.333 1.27.333h-.003z" fill="#fff"/></g><defs><clipPath id="hclip0_221_236"><path fill="#fff" d="M0 0h112v14H0z"/></clipPath></defs></svg>